<?xml version="1.0" encoding="utf-8" standalone="no"?>
<!DOCTYPE svg PUBLIC "-//W3C//DTD SVG 1.1//EN"
  "http://www.w3.org/Graphics/SVG/1.1/DTD/svg11.dtd">
<svg xmlns:xlink="http://www.w3.org/1999/xlink" width="576pt" height="432pt" viewBox="0 0 576 432" xmlns="http://www.w3.org/2000/svg" version="1.1">
 <metadata>
  <rdf:RDF xmlns:dc="http://purl.org/dc/elements/1.1/" xmlns:cc="http://creativecommons.org/ns#" xmlns:rdf="http://www.w3.org/1999/02/22-rdf-syntax-ns#">
   <cc:Work>
    <dc:type rdf:resource="http://purl.org/dc/dcmitype/StillImage"/>
    <dc:date>2022-01-15T18:32:32.070471</dc:date>
    <dc:format>image/svg+xml</dc:format>
    <dc:creator>
     <cc:Agent>
      <dc:title>Matplotlib v3.5.1, https://matplotlib.org/</dc:title>
     </cc:Agent>
    </dc:creator>
   </cc:Work>
  </rdf:RDF>
 </metadata>
 <defs>
  <style type="text/css">*{stroke-linejoin: round; stroke-linecap: butt}</style>
 </defs>
 <g id="figure_1">
  <g id="patch_1">
   <path d="M 0 432 
L 576 432 
L 576 0 
L 0 0 
z
" style="fill: #ffffff"/>
  </g>
  <g id="axes_1">
   <g id="patch_2">
    <path d="M 32.542188 404.521875 
L 565.2 404.521875 
L 565.2 10.8 
L 32.542188 10.8 
z
" style="fill: #ffffff"/>
   </g>
   <g id="line2d_1">
    <path d="M 65.373655 404.521875 
L 65.373655 10.8 
" clip-path="url(#p245efa0fa3)" style="fill: none; stroke: #2ca02c; stroke-width: 1.5; stroke-linecap: square"/>
   </g>
   <g id="patch_3">
    <path d="M 65.373655 321.213286 
L 58.702299 321.213286 
L 58.702299 187.786178 
L 65.373655 187.786178 
z
" clip-path="url(#p245efa0fa3)" style="fill: url(#hfd2a6380a4)"/>
   </g>
   <g id="line2d_2">
    <path d="M 532.368533 404.521875 
L 532.368533 10.8 
" clip-path="url(#p245efa0fa3)" style="fill: none; stroke: #2ca02c; stroke-width: 1.5; stroke-linecap: square"/>
   </g>
   <g id="patch_4">
    <path d="M 532.368533 321.213286 
L 539.039888 321.213286 
L 539.039888 187.786178 
L 532.368533 187.786178 
z
" clip-path="url(#p245efa0fa3)" style="fill: url(#hfd2a6380a4)"/>
   </g>
   <g id="CircleCollection_1">
    <path d="M 134.290171 256.21232 
C 143.136492 256.21232 151.621681 252.697639 157.876974 246.442346 
C 164.132267 240.187052 167.646948 231.701863 167.646948 222.855543 
C 167.646948 214.009222 164.132267 205.524033 157.876974 199.268739 
C 151.621681 193.013446 143.136492 189.498766 134.290171 189.498766 
C 125.44385 189.498766 116.958661 193.013446 110.703368 199.268739 
C 104.448074 205.524033 100.933394 214.009222 100.933394 222.855543 
C 100.933394 231.701863 104.448074 240.187052 110.703368 246.442346 
C 116.958661 252.697639 125.44385 256.21232 134.290171 256.21232 
z
" clip-path="url(#p245efa0fa3)" style="fill: #1f77b4"/>
    <path d="M 193.013424 393.225676 
C 201.859745 393.225676 210.344934 389.710996 216.600227 383.455702 
C 222.855521 377.200409 226.370201 368.71522 226.370201 359.868899 
C 226.370201 351.022578 222.855521 342.537389 216.600227 336.282096 
C 210.344934 330.026803 201.859745 326.512122 193.013424 326.512122 
C 184.167103 326.512122 175.681914 330.026803 169.426621 336.282096 
C 163.171328 342.537389 159.656647 351.022578 159.656647 359.868899 
C 159.656647 368.71522 163.171328 377.200409 169.426621 383.455702 
C 175.681914 389.710996 184.167103 393.225676 193.013424 393.225676 
z
" clip-path="url(#p245efa0fa3)" style="fill: #1f77b4"/>
    <path d="M 186.222317 87.012571 
C 195.068638 87.012571 203.553827 83.497891 209.80912 77.242598 
C 216.064413 70.987304 219.579094 62.502115 219.579094 53.655794 
C 219.579094 44.809474 216.064413 36.324285 209.80912 30.068991 
C 203.553827 23.813698 195.068638 20.299018 186.222317 20.299018 
C 177.375996 20.299018 168.890807 23.813698 162.635514 30.068991 
C 156.38022 36.324285 152.86554 44.809474 152.86554 53.655794 
C 152.86554 62.502115 156.38022 70.987304 162.635514 77.242598 
C 168.890807 83.497891 177.375996 87.012571 186.222317 87.012571 
z
" clip-path="url(#p245efa0fa3)" style="fill: #1f77b4"/>
    <path d="M 349.197479 384.97034 
C 358.043799 384.97034 366.528989 381.455659 372.784282 375.200366 
C 379.039575 368.945073 382.554256 360.459883 382.554256 351.613563 
C 382.554256 342.767242 379.039575 334.282053 372.784282 328.02676 
C 366.528989 321.771466 358.043799 318.256786 349.197479 318.256786 
C 340.351158 318.256786 331.865969 321.771466 325.610675 328.02676 
C 319.355382 334.282053 315.840702 342.767242 315.840702 351.613563 
C 315.840702 360.459883 319.355382 368.945073 325.610675 375.200366 
C 331.865969 381.455659 340.351158 384.97034 349.197479 384.97034 
z
" clip-path="url(#p245efa0fa3)" style="fill: #1f77b4"/>
    <path d="M 248.927021 317.861638 
C 257.773341 317.861638 266.258531 314.346958 272.513824 308.091664 
C 278.769117 301.836371 282.283798 293.351182 282.283798 284.504861 
C 282.283798 275.658541 278.769117 267.173351 272.513824 260.918058 
C 266.258531 254.662765 257.773341 251.148084 248.927021 251.148084 
C 240.0807 251.148084 231.595511 254.662765 225.340217 260.918058 
C 219.084924 267.173351 215.570244 275.658541 215.570244 284.504861 
C 215.570244 293.351182 219.084924 301.836371 225.340217 308.091664 
C 231.595511 314.346958 240.0807 317.861638 248.927021 317.861638 
z
" clip-path="url(#p245efa0fa3)" style="fill: #1f77b4"/>
   </g>
   <g id="PathCollection_1"/>
   <g id="Quiver_1">
    <path d="M 133.88021 222.826978 
L 133.908775 222.417018 
L 133.060289 222.769849 
L 134.575816 218.755938 
L 135.520052 222.941236 
L 134.728696 222.474147 
L 134.700131 222.884107 
L 133.88021 222.826978 
" clip-path="url(#p245efa0fa3)" style="fill: #ff7f0e"/>
    <path d="M 193.921486 360.425964 
L 178.595429 385.408698 
L 180.968618 385.614766 
L 172.673783 393.024188 
L 175.520247 382.272376 
L 176.779306 384.294568 
L 192.105362 359.311834 
L 193.921486 360.425964 
" clip-path="url(#p245efa0fa3)" style="fill: #ff7f0e"/>
    <path d="M 185.347541 54.263794 
L 161.370927 19.766781 
L 160.229374 21.857557 
L 156.773706 11.285794 
L 165.478033 18.209559 
L 163.12048 18.550782 
L 187.097093 53.047795 
L 185.347541 54.263794 
" clip-path="url(#p245efa0fa3)" style="fill: #ff7f0e"/>
    <path d="M 350.259985 351.536242 
L 350.494221 354.755033 
L 352.541913 353.537887 
L 350.127598 364.394908 
L 346.166877 354.001809 
L 348.369209 354.909674 
L 348.134973 351.690883 
L 350.259985 351.536242 
" clip-path="url(#p245efa0fa3)" style="fill: #ff7f0e"/>
    <path d="M 248.980318 285.47381 
L 248.011369 285.527107 
L 249.086912 287.411708 
L 239.237531 285.037833 
L 248.767129 281.598014 
L 247.904775 283.589209 
L 248.873723 283.535912 
L 248.980318 285.47381 
" clip-path="url(#p245efa0fa3)" style="fill: #ff7f0e"/>
   </g>
   <g id="matplotlib.axis_1">
    <g id="xtick_1">
     <g id="line2d_3">
      <defs>
       <path id="md5c889dc88" d="M 0 0 
L 0 3.5 
" style="stroke: #000000; stroke-width: 0.8"/>
      </defs>
      <g>
       <use xlink:href="#md5c889dc88" x="65.373655" y="404.521875" style="stroke: #000000; stroke-width: 0.8"/>
      </g>
     </g>
     <g id="text_1">
      <!-- −4 -->
      <g transform="translate(58.002561 419.120313)scale(0.1 -0.1)">
       <defs>
        <path id="DejaVuSans-2212" d="M 678 2272 
L 4684 2272 
L 4684 1741 
L 678 1741 
L 678 2272 
z
" transform="scale(0.015625)"/>
        <path id="DejaVuSans-34" d="M 2419 4116 
L 825 1625 
L 2419 1625 
L 2419 4116 
z
M 2253 4666 
L 3047 4666 
L 3047 1625 
L 3713 1625 
L 3713 1100 
L 3047 1100 
L 3047 0 
L 2419 0 
L 2419 1100 
L 313 1100 
L 313 1709 
L 2253 4666 
z
" transform="scale(0.015625)"/>
       </defs>
       <use xlink:href="#DejaVuSans-2212"/>
       <use xlink:href="#DejaVuSans-34" x="83.789062"/>
      </g>
     </g>
    </g>
    <g id="xtick_2">
     <g id="line2d_4">
      <g>
       <use xlink:href="#md5c889dc88" x="132.087209" y="404.521875" style="stroke: #000000; stroke-width: 0.8"/>
      </g>
     </g>
     <g id="text_2">
      <!-- −2 -->
      <g transform="translate(124.716115 419.120313)scale(0.1 -0.1)">
       <defs>
        <path id="DejaVuSans-32" d="M 1228 531 
L 3431 531 
L 3431 0 
L 469 0 
L 469 531 
Q 828 903 1448 1529 
Q 2069 2156 2228 2338 
Q 2531 2678 2651 2914 
Q 2772 3150 2772 3378 
Q 2772 3750 2511 3984 
Q 2250 4219 1831 4219 
Q 1534 4219 1204 4116 
Q 875 4013 500 3803 
L 500 4441 
Q 881 4594 1212 4672 
Q 1544 4750 1819 4750 
Q 2544 4750 2975 4387 
Q 3406 4025 3406 3419 
Q 3406 3131 3298 2873 
Q 3191 2616 2906 2266 
Q 2828 2175 2409 1742 
Q 1991 1309 1228 531 
z
" transform="scale(0.015625)"/>
       </defs>
       <use xlink:href="#DejaVuSans-2212"/>
       <use xlink:href="#DejaVuSans-32" x="83.789062"/>
      </g>
     </g>
    </g>
    <g id="xtick_3">
     <g id="line2d_5">
      <g>
       <use xlink:href="#md5c889dc88" x="198.800763" y="404.521875" style="stroke: #000000; stroke-width: 0.8"/>
      </g>
     </g>
     <g id="text_3">
      <!-- 0 -->
      <g transform="translate(195.619513 419.120313)scale(0.1 -0.1)">
       <defs>
        <path id="DejaVuSans-30" d="M 2034 4250 
Q 1547 4250 1301 3770 
Q 1056 3291 1056 2328 
Q 1056 1369 1301 889 
Q 1547 409 2034 409 
Q 2525 409 2770 889 
Q 3016 1369 3016 2328 
Q 3016 3291 2770 3770 
Q 2525 4250 2034 4250 
z
M 2034 4750 
Q 2819 4750 3233 4129 
Q 3647 3509 3647 2328 
Q 3647 1150 3233 529 
Q 2819 -91 2034 -91 
Q 1250 -91 836 529 
Q 422 1150 422 2328 
Q 422 3509 836 4129 
Q 1250 4750 2034 4750 
z
" transform="scale(0.015625)"/>
       </defs>
       <use xlink:href="#DejaVuSans-30"/>
      </g>
     </g>
    </g>
    <g id="xtick_4">
     <g id="line2d_6">
      <g>
       <use xlink:href="#md5c889dc88" x="265.514317" y="404.521875" style="stroke: #000000; stroke-width: 0.8"/>
      </g>
     </g>
     <g id="text_4">
      <!-- 2 -->
      <g transform="translate(262.333067 419.120313)scale(0.1 -0.1)">
       <use xlink:href="#DejaVuSans-32"/>
      </g>
     </g>
    </g>
    <g id="xtick_5">
     <g id="line2d_7">
      <g>
       <use xlink:href="#md5c889dc88" x="332.227871" y="404.521875" style="stroke: #000000; stroke-width: 0.8"/>
      </g>
     </g>
     <g id="text_5">
      <!-- 4 -->
      <g transform="translate(329.046621 419.120313)scale(0.1 -0.1)">
       <use xlink:href="#DejaVuSans-34"/>
      </g>
     </g>
    </g>
    <g id="xtick_6">
     <g id="line2d_8">
      <g>
       <use xlink:href="#md5c889dc88" x="398.941425" y="404.521875" style="stroke: #000000; stroke-width: 0.8"/>
      </g>
     </g>
     <g id="text_6">
      <!-- 6 -->
      <g transform="translate(395.760175 419.120313)scale(0.1 -0.1)">
       <defs>
        <path id="DejaVuSans-36" d="M 2113 2584 
Q 1688 2584 1439 2293 
Q 1191 2003 1191 1497 
Q 1191 994 1439 701 
Q 1688 409 2113 409 
Q 2538 409 2786 701 
Q 3034 994 3034 1497 
Q 3034 2003 2786 2293 
Q 2538 2584 2113 2584 
z
M 3366 4563 
L 3366 3988 
Q 3128 4100 2886 4159 
Q 2644 4219 2406 4219 
Q 1781 4219 1451 3797 
Q 1122 3375 1075 2522 
Q 1259 2794 1537 2939 
Q 1816 3084 2150 3084 
Q 2853 3084 3261 2657 
Q 3669 2231 3669 1497 
Q 3669 778 3244 343 
Q 2819 -91 2113 -91 
Q 1303 -91 875 529 
Q 447 1150 447 2328 
Q 447 3434 972 4092 
Q 1497 4750 2381 4750 
Q 2619 4750 2861 4703 
Q 3103 4656 3366 4563 
z
" transform="scale(0.015625)"/>
       </defs>
       <use xlink:href="#DejaVuSans-36"/>
      </g>
     </g>
    </g>
    <g id="xtick_7">
     <g id="line2d_9">
      <g>
       <use xlink:href="#md5c889dc88" x="465.654979" y="404.521875" style="stroke: #000000; stroke-width: 0.8"/>
      </g>
     </g>
     <g id="text_7">
      <!-- 8 -->
      <g transform="translate(462.473729 419.120313)scale(0.1 -0.1)">
       <defs>
        <path id="DejaVuSans-38" d="M 2034 2216 
Q 1584 2216 1326 1975 
Q 1069 1734 1069 1313 
Q 1069 891 1326 650 
Q 1584 409 2034 409 
Q 2484 409 2743 651 
Q 3003 894 3003 1313 
Q 3003 1734 2745 1975 
Q 2488 2216 2034 2216 
z
M 1403 2484 
Q 997 2584 770 2862 
Q 544 3141 544 3541 
Q 544 4100 942 4425 
Q 1341 4750 2034 4750 
Q 2731 4750 3128 4425 
Q 3525 4100 3525 3541 
Q 3525 3141 3298 2862 
Q 3072 2584 2669 2484 
Q 3125 2378 3379 2068 
Q 3634 1759 3634 1313 
Q 3634 634 3220 271 
Q 2806 -91 2034 -91 
Q 1263 -91 848 271 
Q 434 634 434 1313 
Q 434 1759 690 2068 
Q 947 2378 1403 2484 
z
M 1172 3481 
Q 1172 3119 1398 2916 
Q 1625 2713 2034 2713 
Q 2441 2713 2670 2916 
Q 2900 3119 2900 3481 
Q 2900 3844 2670 4047 
Q 2441 4250 2034 4250 
Q 1625 4250 1398 4047 
Q 1172 3844 1172 3481 
z
" transform="scale(0.015625)"/>
       </defs>
       <use xlink:href="#DejaVuSans-38"/>
      </g>
     </g>
    </g>
    <g id="xtick_8">
     <g id="line2d_10">
      <g>
       <use xlink:href="#md5c889dc88" x="532.368533" y="404.521875" style="stroke: #000000; stroke-width: 0.8"/>
      </g>
     </g>
     <g id="text_8">
      <!-- 10 -->
      <g transform="translate(526.006033 419.120313)scale(0.1 -0.1)">
       <defs>
        <path id="DejaVuSans-31" d="M 794 531 
L 1825 531 
L 1825 4091 
L 703 3866 
L 703 4441 
L 1819 4666 
L 2450 4666 
L 2450 531 
L 3481 531 
L 3481 0 
L 794 0 
L 794 531 
z
" transform="scale(0.015625)"/>
       </defs>
       <use xlink:href="#DejaVuSans-31"/>
       <use xlink:href="#DejaVuSans-30" x="63.623047"/>
      </g>
     </g>
    </g>
   </g>
   <g id="matplotlib.axis_2">
    <g id="ytick_1">
     <g id="line2d_11">
      <defs>
       <path id="mc833f81e55" d="M 0 0 
L -3.5 0 
" style="stroke: #000000; stroke-width: 0.8"/>
      </defs>
      <g>
       <use xlink:href="#mc833f81e55" x="32.542188" y="387.92684" style="stroke: #000000; stroke-width: 0.8"/>
      </g>
     </g>
     <g id="text_9">
      <!-- −4 -->
      <g transform="translate(10.8 391.726059)scale(0.1 -0.1)">
       <use xlink:href="#DejaVuSans-2212"/>
       <use xlink:href="#DejaVuSans-34" x="83.789062"/>
      </g>
     </g>
    </g>
    <g id="ytick_2">
     <g id="line2d_12">
      <g>
       <use xlink:href="#mc833f81e55" x="32.542188" y="321.213286" style="stroke: #000000; stroke-width: 0.8"/>
      </g>
     </g>
     <g id="text_10">
      <!-- −2 -->
      <g transform="translate(10.8 325.012505)scale(0.1 -0.1)">
       <use xlink:href="#DejaVuSans-2212"/>
       <use xlink:href="#DejaVuSans-32" x="83.789062"/>
      </g>
     </g>
    </g>
    <g id="ytick_3">
     <g id="line2d_13">
      <g>
       <use xlink:href="#mc833f81e55" x="32.542188" y="254.499732" style="stroke: #000000; stroke-width: 0.8"/>
      </g>
     </g>
     <g id="text_11">
      <!-- 0 -->
      <g transform="translate(19.179688 258.298951)scale(0.1 -0.1)">
       <use xlink:href="#DejaVuSans-30"/>
      </g>
     </g>
    </g>
    <g id="ytick_4">
     <g id="line2d_14">
      <g>
       <use xlink:href="#mc833f81e55" x="32.542188" y="187.786178" style="stroke: #000000; stroke-width: 0.8"/>
      </g>
     </g>
     <g id="text_12">
      <!-- 2 -->
      <g transform="translate(19.179688 191.585397)scale(0.1 -0.1)">
       <use xlink:href="#DejaVuSans-32"/>
      </g>
     </g>
    </g>
    <g id="ytick_5">
     <g id="line2d_15">
      <g>
       <use xlink:href="#mc833f81e55" x="32.542188" y="121.072624" style="stroke: #000000; stroke-width: 0.8"/>
      </g>
     </g>
     <g id="text_13">
      <!-- 4 -->
      <g transform="translate(19.179688 124.871843)scale(0.1 -0.1)">
       <use xlink:href="#DejaVuSans-34"/>
      </g>
     </g>
    </g>
    <g id="ytick_6">
     <g id="line2d_16">
      <g>
       <use xlink:href="#mc833f81e55" x="32.542188" y="54.35907" style="stroke: #000000; stroke-width: 0.8"/>
      </g>
     </g>
     <g id="text_14">
      <!-- 6 -->
      <g transform="translate(19.179688 58.158289)scale(0.1 -0.1)">
       <use xlink:href="#DejaVuSans-36"/>
      </g>
     </g>
    </g>
   </g>
   <g id="line2d_17">
    <path d="M 268.849994 254.499732 
L 272.185672 254.499732 
L 272.185672 254.499732 
L 268.849994 254.499732 
L 268.849994 254.499732 
L 272.185672 254.499732 
L 272.185672 254.499731 
L 268.849994 254.499731 
L 268.849994 254.499725 
L 272.185672 254.499724 
L 272.185672 254.499634 
L 268.849994 254.499623 
L 268.849994 254.499185 
L 272.185672 254.499116 
L 272.185672 254.49219 
L 268.849993 254.491348 
L 268.849985 254.457203 
L 272.185718 254.451783 
L 272.186482 253.910114 
L 268.841337 253.843827 
L 268.79402 251.152669 
L 272.477215 250.676553 
L 279.576749 187.972056 
L 186.222317 53.655794 
" clip-path="url(#p245efa0fa3)" style="fill: none; stroke: #0000ff; stroke-width: 1.5; stroke-linecap: square"/>
   </g>
   <g id="patch_5">
    <path d="M 32.542188 404.521875 
L 32.542188 10.8 
" style="fill: none; stroke: #000000; stroke-width: 0.8; stroke-linejoin: miter; stroke-linecap: square"/>
   </g>
   <g id="patch_6">
    <path d="M 565.2 404.521875 
L 565.2 10.8 
" style="fill: none; stroke: #000000; stroke-width: 0.8; stroke-linejoin: miter; stroke-linecap: square"/>
   </g>
   <g id="patch_7">
    <path d="M 32.542188 404.521875 
L 565.2 404.521875 
" style="fill: none; stroke: #000000; stroke-width: 0.8; stroke-linejoin: miter; stroke-linecap: square"/>
   </g>
   <g id="patch_8">
    <path d="M 32.542188 10.8 
L 565.2 10.8 
" style="fill: none; stroke: #000000; stroke-width: 0.8; stroke-linejoin: miter; stroke-linecap: square"/>
   </g>
   <g id="text_15">
    <!-- Time: 40.000 -->
    <g transform="translate(43.195344 30.486094)scale(0.1 -0.1)">
     <defs>
      <path id="DejaVuSans-54" d="M -19 4666 
L 3928 4666 
L 3928 4134 
L 2272 4134 
L 2272 0 
L 1638 0 
L 1638 4134 
L -19 4134 
L -19 4666 
z
" transform="scale(0.015625)"/>
      <path id="DejaVuSans-69" d="M 603 3500 
L 1178 3500 
L 1178 0 
L 603 0 
L 603 3500 
z
M 603 4863 
L 1178 4863 
L 1178 4134 
L 603 4134 
L 603 4863 
z
" transform="scale(0.015625)"/>
      <path id="DejaVuSans-6d" d="M 3328 2828 
Q 3544 3216 3844 3400 
Q 4144 3584 4550 3584 
Q 5097 3584 5394 3201 
Q 5691 2819 5691 2113 
L 5691 0 
L 5113 0 
L 5113 2094 
Q 5113 2597 4934 2840 
Q 4756 3084 4391 3084 
Q 3944 3084 3684 2787 
Q 3425 2491 3425 1978 
L 3425 0 
L 2847 0 
L 2847 2094 
Q 2847 2600 2669 2842 
Q 2491 3084 2119 3084 
Q 1678 3084 1418 2786 
Q 1159 2488 1159 1978 
L 1159 0 
L 581 0 
L 581 3500 
L 1159 3500 
L 1159 2956 
Q 1356 3278 1631 3431 
Q 1906 3584 2284 3584 
Q 2666 3584 2933 3390 
Q 3200 3197 3328 2828 
z
" transform="scale(0.015625)"/>
      <path id="DejaVuSans-65" d="M 3597 1894 
L 3597 1613 
L 953 1613 
Q 991 1019 1311 708 
Q 1631 397 2203 397 
Q 2534 397 2845 478 
Q 3156 559 3463 722 
L 3463 178 
Q 3153 47 2828 -22 
Q 2503 -91 2169 -91 
Q 1331 -91 842 396 
Q 353 884 353 1716 
Q 353 2575 817 3079 
Q 1281 3584 2069 3584 
Q 2775 3584 3186 3129 
Q 3597 2675 3597 1894 
z
M 3022 2063 
Q 3016 2534 2758 2815 
Q 2500 3097 2075 3097 
Q 1594 3097 1305 2825 
Q 1016 2553 972 2059 
L 3022 2063 
z
" transform="scale(0.015625)"/>
      <path id="DejaVuSans-3a" d="M 750 794 
L 1409 794 
L 1409 0 
L 750 0 
L 750 794 
z
M 750 3309 
L 1409 3309 
L 1409 2516 
L 750 2516 
L 750 3309 
z
" transform="scale(0.015625)"/>
      <path id="DejaVuSans-20" transform="scale(0.015625)"/>
      <path id="DejaVuSans-2e" d="M 684 794 
L 1344 794 
L 1344 0 
L 684 0 
L 684 794 
z
" transform="scale(0.015625)"/>
     </defs>
     <use xlink:href="#DejaVuSans-54"/>
     <use xlink:href="#DejaVuSans-69" x="57.958984"/>
     <use xlink:href="#DejaVuSans-6d" x="85.742188"/>
     <use xlink:href="#DejaVuSans-65" x="183.154297"/>
     <use xlink:href="#DejaVuSans-3a" x="244.677734"/>
     <use xlink:href="#DejaVuSans-20" x="278.369141"/>
     <use xlink:href="#DejaVuSans-34" x="310.15625"/>
     <use xlink:href="#DejaVuSans-30" x="373.779297"/>
     <use xlink:href="#DejaVuSans-2e" x="437.402344"/>
     <use xlink:href="#DejaVuSans-30" x="469.189453"/>
     <use xlink:href="#DejaVuSans-30" x="532.8125"/>
     <use xlink:href="#DejaVuSans-30" x="596.435547"/>
    </g>
   </g>
  </g>
 </g>
 <defs>
  <clipPath id="p245efa0fa3">
   <rect x="32.542188" y="10.8" width="532.657812" height="393.721875"/>
  </clipPath>
 </defs>
 <defs>
  <pattern id="hfd2a6380a4" patternUnits="userSpaceOnUse" x="0" y="0" width="72" height="72">
   <rect x="0" y="0" width="73" height="73" fill="none"/>
   <path d="M -36 36 
L 36 -36 
M -30 42 
L 42 -30 
M -24 48 
L 48 -24 
M -18 54 
L 54 -18 
M -12 60 
L 60 -12 
M -6 66 
L 66 -6 
M 0 72 
L 72 0 
M 6 78 
L 78 6 
M 12 84 
L 84 12 
M 18 90 
L 90 18 
M 24 96 
L 96 24 
M 30 102 
L 102 30 
M 36 108 
L 108 36 
M -36 36 
L 36 108 
M -30 30 
L 42 102 
M -24 24 
L 48 96 
M -18 18 
L 54 90 
M -12 12 
L 60 84 
M -6 6 
L 66 78 
M 0 0 
L 72 72 
M 6 -6 
L 78 66 
M 12 -12 
L 84 60 
M 18 -18 
L 90 54 
M 24 -24 
L 96 48 
M 30 -30 
L 102 42 
M 36 -36 
L 108 36 
" style="fill: #2ca02c; stroke: #2ca02c; stroke-width: 1.0; stroke-linecap: butt; stroke-linejoin: miter"/>
  </pattern>
 </defs>
</svg>
