<?xml version="1.0" encoding="utf-8" standalone="no"?>
<!DOCTYPE svg PUBLIC "-//W3C//DTD SVG 1.1//EN"
  "http://www.w3.org/Graphics/SVG/1.1/DTD/svg11.dtd">
<svg xmlns:xlink="http://www.w3.org/1999/xlink" width="576pt" height="432pt" viewBox="0 0 576 432" xmlns="http://www.w3.org/2000/svg" version="1.1">
 <metadata>
  <rdf:RDF xmlns:dc="http://purl.org/dc/elements/1.1/" xmlns:cc="http://creativecommons.org/ns#" xmlns:rdf="http://www.w3.org/1999/02/22-rdf-syntax-ns#">
   <cc:Work>
    <dc:type rdf:resource="http://purl.org/dc/dcmitype/StillImage"/>
    <dc:date>2022-01-08T17:58:55.655471</dc:date>
    <dc:format>image/svg+xml</dc:format>
    <dc:creator>
     <cc:Agent>
      <dc:title>Matplotlib v3.5.1, https://matplotlib.org/</dc:title>
     </cc:Agent>
    </dc:creator>
   </cc:Work>
  </rdf:RDF>
 </metadata>
 <defs>
  <style type="text/css">*{stroke-linejoin: round; stroke-linecap: butt}</style>
 </defs>
 <g id="figure_1">
  <g id="patch_1">
   <path d="M 0 432 
L 576 432 
L 576 0 
L 0 0 
z
" style="fill: #ffffff"/>
  </g>
  <g id="axes_1">
   <g id="patch_2">
    <path d="M 32.542188 404.521875 
L 565.2 404.521875 
L 565.2 10.8 
L 32.542188 10.8 
z
" style="fill: #ffffff"/>
   </g>
   <g id="line2d_1">
    <path d="M 72.945936 404.521875 
L 72.945936 10.8 
" clip-path="url(#pe98908d33c)" style="fill: none; stroke: #2ca02c; stroke-width: 1.5; stroke-linecap: square"/>
   </g>
   <g id="line2d_2">
    <path d="M 524.796251 404.521875 
L 524.796251 10.8 
" clip-path="url(#pe98908d33c)" style="fill: none; stroke: #2ca02c; stroke-width: 1.5; stroke-linecap: square"/>
   </g>
   <g id="CircleCollection_1">
    <path d="M 139.627502 254.637807 
C 148.186938 254.637807 156.396954 251.237107 162.449389 245.184671 
C 168.501824 239.132236 171.902524 230.92222 171.902524 222.362784 
C 171.902524 213.803348 168.501824 205.593332 162.449389 199.540897 
C 156.396954 193.488462 148.186938 190.087762 139.627502 190.087762 
C 131.068066 190.087762 122.85805 193.488462 116.805614 199.540897 
C 110.753179 205.593332 107.352479 213.803348 107.352479 222.362784 
C 107.352479 230.92222 110.753179 239.132236 116.805614 245.184671 
C 122.85805 251.237107 131.068066 254.637807 139.627502 254.637807 
z
" clip-path="url(#pe98908d33c)" style="fill: #1f77b4"/>
    <path d="M 196.44637 387.207844 
C 205.005806 387.207844 213.215822 383.807144 219.268257 377.754709 
C 225.320693 371.702273 228.721392 363.492257 228.721392 354.932821 
C 228.721392 346.373385 225.320693 338.163369 219.268257 332.110934 
C 213.215822 326.058499 205.005806 322.657799 196.44637 322.657799 
C 187.886934 322.657799 179.676918 326.058499 173.624483 332.110934 
C 167.572047 338.163369 164.171347 346.373385 164.171347 354.932821 
C 164.171347 363.492257 167.572047 371.702273 173.624483 377.754709 
C 179.676918 383.807144 187.886934 387.207844 196.44637 387.207844 
z
" clip-path="url(#pe98908d33c)" style="fill: #1f77b4"/>
    <path d="M 189.875497 90.925177 
C 198.434933 90.925177 206.644949 87.524477 212.697384 81.472042 
C 218.74982 75.419607 222.15052 67.209591 222.15052 58.650155 
C 222.15052 50.090719 218.74982 41.880703 212.697384 35.828267 
C 206.644949 29.775832 198.434933 26.375132 189.875497 26.375132 
C 181.316061 26.375132 173.106045 29.775832 167.05361 35.828267 
C 161.001175 41.880703 157.600475 50.090719 157.600475 58.650155 
C 157.600475 67.209591 161.001175 75.419607 167.05361 81.472042 
C 173.106045 87.524477 181.316061 90.925177 189.875497 90.925177 
z
" clip-path="url(#pe98908d33c)" style="fill: #1f77b4"/>
    <path d="M 347.565403 379.220227 
C 356.124839 379.220227 364.334855 375.819527 370.38729 369.767091 
C 376.439725 363.714656 379.840425 355.50464 379.840425 346.945204 
C 379.840425 338.385768 376.439725 330.175752 370.38729 324.123317 
C 364.334855 318.070882 356.124839 314.670182 347.565403 314.670182 
C 339.005967 314.670182 330.795951 318.070882 324.743515 324.123317 
C 318.69108 330.175752 315.29038 338.385768 315.29038 346.945204 
C 315.29038 355.50464 318.69108 363.714656 324.743515 369.767091 
C 330.795951 375.819527 339.005967 379.220227 347.565403 379.220227 
z
" clip-path="url(#pe98908d33c)" style="fill: #1f77b4"/>
    <path d="M 250.546698 314.287849 
C 259.106134 314.287849 267.31615 310.887149 273.368586 304.834713 
C 279.421021 298.782278 282.821721 290.572262 282.821721 282.012826 
C 282.821721 273.45339 279.421021 265.243374 273.368586 259.190939 
C 267.31615 253.138504 259.106134 249.737804 250.546698 249.737804 
C 241.987262 249.737804 233.777246 253.138504 227.724811 259.190939 
C 221.672376 265.243374 218.271676 273.45339 218.271676 282.012826 
C 218.271676 290.572262 221.672376 298.782278 227.724811 304.834713 
C 233.777246 310.887149 241.987262 314.287849 250.546698 314.287849 
z
" clip-path="url(#pe98908d33c)" style="fill: #1f77b4"/>
   </g>
   <g id="PathCollection_1"/>
   <g id="Quiver_1">
    <path d="M 139.230836 222.335146 
L 139.258474 221.93848 
L 138.437505 222.27987 
L 139.903883 218.396129 
L 140.817498 222.445699 
L 140.051805 221.993757 
L 140.024167 222.390422 
L 139.230836 222.335146 
" clip-path="url(#pe98908d33c)" style="fill: #ff7f0e"/>
    <path d="M 197.354432 355.489886 
L 182.687986 379.3974 
L 185.061174 379.603468 
L 176.76634 387.01289 
L 179.612804 376.261078 
L 180.871863 378.28327 
L 195.538308 354.375756 
L 197.354432 355.489886 
" clip-path="url(#pe98908d33c)" style="fill: #ff7f0e"/>
    <path d="M 189.000721 59.258154 
L 165.979121 26.135193 
L 164.837568 28.225969 
L 161.3819 17.654206 
L 170.086226 24.577971 
L 167.728674 24.919194 
L 190.750274 58.042155 
L 189.000721 59.258154 
" clip-path="url(#pe98908d33c)" style="fill: #ff7f0e"/>
    <path d="M 348.627909 346.867884 
L 348.831982 349.672178 
L 350.879673 348.455031 
L 348.465359 359.312052 
L 344.504638 348.918953 
L 346.70697 349.826819 
L 346.502897 347.022524 
L 348.627909 346.867884 
" clip-path="url(#pe98908d33c)" style="fill: #ff7f0e"/>
    <path d="M 250.598267 282.950352 
L 249.660741 283.001921 
L 250.701405 284.825404 
L 241.171438 282.528514 
L 250.391992 279.200248 
L 249.557603 281.126869 
L 250.49513 281.0753 
L 250.598267 282.950352 
" clip-path="url(#pe98908d33c)" style="fill: #ff7f0e"/>
   </g>
   <g id="matplotlib.axis_1">
    <g id="xtick_1">
     <g id="line2d_3">
      <defs>
       <path id="mbff151e295" d="M 0 0 
L 0 3.5 
" style="stroke: #000000; stroke-width: 0.8"/>
      </defs>
      <g>
       <use xlink:href="#mbff151e295" x="72.945936" y="404.521875" style="stroke: #000000; stroke-width: 0.8"/>
      </g>
     </g>
     <g id="text_1">
      <!-- −4 -->
      <g transform="translate(65.574843 419.120313)scale(0.1 -0.1)">
       <defs>
        <path id="DejaVuSans-2212" d="M 678 2272 
L 4684 2272 
L 4684 1741 
L 678 1741 
L 678 2272 
z
" transform="scale(0.015625)"/>
        <path id="DejaVuSans-34" d="M 2419 4116 
L 825 1625 
L 2419 1625 
L 2419 4116 
z
M 2253 4666 
L 3047 4666 
L 3047 1625 
L 3713 1625 
L 3713 1100 
L 3047 1100 
L 3047 0 
L 2419 0 
L 2419 1100 
L 313 1100 
L 313 1709 
L 2253 4666 
z
" transform="scale(0.015625)"/>
       </defs>
       <use xlink:href="#DejaVuSans-2212"/>
       <use xlink:href="#DejaVuSans-34" x="83.789062"/>
      </g>
     </g>
    </g>
    <g id="xtick_2">
     <g id="line2d_4">
      <g>
       <use xlink:href="#mbff151e295" x="137.495981" y="404.521875" style="stroke: #000000; stroke-width: 0.8"/>
      </g>
     </g>
     <g id="text_2">
      <!-- −2 -->
      <g transform="translate(130.124888 419.120313)scale(0.1 -0.1)">
       <defs>
        <path id="DejaVuSans-32" d="M 1228 531 
L 3431 531 
L 3431 0 
L 469 0 
L 469 531 
Q 828 903 1448 1529 
Q 2069 2156 2228 2338 
Q 2531 2678 2651 2914 
Q 2772 3150 2772 3378 
Q 2772 3750 2511 3984 
Q 2250 4219 1831 4219 
Q 1534 4219 1204 4116 
Q 875 4013 500 3803 
L 500 4441 
Q 881 4594 1212 4672 
Q 1544 4750 1819 4750 
Q 2544 4750 2975 4387 
Q 3406 4025 3406 3419 
Q 3406 3131 3298 2873 
Q 3191 2616 2906 2266 
Q 2828 2175 2409 1742 
Q 1991 1309 1228 531 
z
" transform="scale(0.015625)"/>
       </defs>
       <use xlink:href="#DejaVuSans-2212"/>
       <use xlink:href="#DejaVuSans-32" x="83.789062"/>
      </g>
     </g>
    </g>
    <g id="xtick_3">
     <g id="line2d_5">
      <g>
       <use xlink:href="#mbff151e295" x="202.046026" y="404.521875" style="stroke: #000000; stroke-width: 0.8"/>
      </g>
     </g>
     <g id="text_3">
      <!-- 0 -->
      <g transform="translate(198.864776 419.120313)scale(0.1 -0.1)">
       <defs>
        <path id="DejaVuSans-30" d="M 2034 4250 
Q 1547 4250 1301 3770 
Q 1056 3291 1056 2328 
Q 1056 1369 1301 889 
Q 1547 409 2034 409 
Q 2525 409 2770 889 
Q 3016 1369 3016 2328 
Q 3016 3291 2770 3770 
Q 2525 4250 2034 4250 
z
M 2034 4750 
Q 2819 4750 3233 4129 
Q 3647 3509 3647 2328 
Q 3647 1150 3233 529 
Q 2819 -91 2034 -91 
Q 1250 -91 836 529 
Q 422 1150 422 2328 
Q 422 3509 836 4129 
Q 1250 4750 2034 4750 
z
" transform="scale(0.015625)"/>
       </defs>
       <use xlink:href="#DejaVuSans-30"/>
      </g>
     </g>
    </g>
    <g id="xtick_4">
     <g id="line2d_6">
      <g>
       <use xlink:href="#mbff151e295" x="266.596071" y="404.521875" style="stroke: #000000; stroke-width: 0.8"/>
      </g>
     </g>
     <g id="text_4">
      <!-- 2 -->
      <g transform="translate(263.414821 419.120313)scale(0.1 -0.1)">
       <use xlink:href="#DejaVuSans-32"/>
      </g>
     </g>
    </g>
    <g id="xtick_5">
     <g id="line2d_7">
      <g>
       <use xlink:href="#mbff151e295" x="331.146116" y="404.521875" style="stroke: #000000; stroke-width: 0.8"/>
      </g>
     </g>
     <g id="text_5">
      <!-- 4 -->
      <g transform="translate(327.964866 419.120313)scale(0.1 -0.1)">
       <use xlink:href="#DejaVuSans-34"/>
      </g>
     </g>
    </g>
    <g id="xtick_6">
     <g id="line2d_8">
      <g>
       <use xlink:href="#mbff151e295" x="395.696161" y="404.521875" style="stroke: #000000; stroke-width: 0.8"/>
      </g>
     </g>
     <g id="text_6">
      <!-- 6 -->
      <g transform="translate(392.514911 419.120313)scale(0.1 -0.1)">
       <defs>
        <path id="DejaVuSans-36" d="M 2113 2584 
Q 1688 2584 1439 2293 
Q 1191 2003 1191 1497 
Q 1191 994 1439 701 
Q 1688 409 2113 409 
Q 2538 409 2786 701 
Q 3034 994 3034 1497 
Q 3034 2003 2786 2293 
Q 2538 2584 2113 2584 
z
M 3366 4563 
L 3366 3988 
Q 3128 4100 2886 4159 
Q 2644 4219 2406 4219 
Q 1781 4219 1451 3797 
Q 1122 3375 1075 2522 
Q 1259 2794 1537 2939 
Q 1816 3084 2150 3084 
Q 2853 3084 3261 2657 
Q 3669 2231 3669 1497 
Q 3669 778 3244 343 
Q 2819 -91 2113 -91 
Q 1303 -91 875 529 
Q 447 1150 447 2328 
Q 447 3434 972 4092 
Q 1497 4750 2381 4750 
Q 2619 4750 2861 4703 
Q 3103 4656 3366 4563 
z
" transform="scale(0.015625)"/>
       </defs>
       <use xlink:href="#DejaVuSans-36"/>
      </g>
     </g>
    </g>
    <g id="xtick_7">
     <g id="line2d_9">
      <g>
       <use xlink:href="#mbff151e295" x="460.246206" y="404.521875" style="stroke: #000000; stroke-width: 0.8"/>
      </g>
     </g>
     <g id="text_7">
      <!-- 8 -->
      <g transform="translate(457.064956 419.120313)scale(0.1 -0.1)">
       <defs>
        <path id="DejaVuSans-38" d="M 2034 2216 
Q 1584 2216 1326 1975 
Q 1069 1734 1069 1313 
Q 1069 891 1326 650 
Q 1584 409 2034 409 
Q 2484 409 2743 651 
Q 3003 894 3003 1313 
Q 3003 1734 2745 1975 
Q 2488 2216 2034 2216 
z
M 1403 2484 
Q 997 2584 770 2862 
Q 544 3141 544 3541 
Q 544 4100 942 4425 
Q 1341 4750 2034 4750 
Q 2731 4750 3128 4425 
Q 3525 4100 3525 3541 
Q 3525 3141 3298 2862 
Q 3072 2584 2669 2484 
Q 3125 2378 3379 2068 
Q 3634 1759 3634 1313 
Q 3634 634 3220 271 
Q 2806 -91 2034 -91 
Q 1263 -91 848 271 
Q 434 634 434 1313 
Q 434 1759 690 2068 
Q 947 2378 1403 2484 
z
M 1172 3481 
Q 1172 3119 1398 2916 
Q 1625 2713 2034 2713 
Q 2441 2713 2670 2916 
Q 2900 3119 2900 3481 
Q 2900 3844 2670 4047 
Q 2441 4250 2034 4250 
Q 1625 4250 1398 4047 
Q 1172 3844 1172 3481 
z
" transform="scale(0.015625)"/>
       </defs>
       <use xlink:href="#DejaVuSans-38"/>
      </g>
     </g>
    </g>
    <g id="xtick_8">
     <g id="line2d_10">
      <g>
       <use xlink:href="#mbff151e295" x="524.796251" y="404.521875" style="stroke: #000000; stroke-width: 0.8"/>
      </g>
     </g>
     <g id="text_8">
      <!-- 10 -->
      <g transform="translate(518.433751 419.120313)scale(0.1 -0.1)">
       <defs>
        <path id="DejaVuSans-31" d="M 794 531 
L 1825 531 
L 1825 4091 
L 703 3866 
L 703 4441 
L 1819 4666 
L 2450 4666 
L 2450 531 
L 3481 531 
L 3481 0 
L 794 0 
L 794 531 
z
" transform="scale(0.015625)"/>
       </defs>
       <use xlink:href="#DejaVuSans-31"/>
       <use xlink:href="#DejaVuSans-30" x="63.623047"/>
      </g>
     </g>
    </g>
   </g>
   <g id="matplotlib.axis_2">
    <g id="ytick_1">
     <g id="line2d_11">
      <defs>
       <path id="m66494fc200" d="M 0 0 
L -3.5 0 
" style="stroke: #000000; stroke-width: 0.8"/>
      </defs>
      <g>
       <use xlink:href="#m66494fc200" x="32.542188" y="382.080848" style="stroke: #000000; stroke-width: 0.8"/>
      </g>
     </g>
     <g id="text_9">
      <!-- −4 -->
      <g transform="translate(10.8 385.880067)scale(0.1 -0.1)">
       <use xlink:href="#DejaVuSans-2212"/>
       <use xlink:href="#DejaVuSans-34" x="83.789062"/>
      </g>
     </g>
    </g>
    <g id="ytick_2">
     <g id="line2d_12">
      <g>
       <use xlink:href="#m66494fc200" x="32.542188" y="317.530803" style="stroke: #000000; stroke-width: 0.8"/>
      </g>
     </g>
     <g id="text_10">
      <!-- −2 -->
      <g transform="translate(10.8 321.330022)scale(0.1 -0.1)">
       <use xlink:href="#DejaVuSans-2212"/>
       <use xlink:href="#DejaVuSans-32" x="83.789062"/>
      </g>
     </g>
    </g>
    <g id="ytick_3">
     <g id="line2d_13">
      <g>
       <use xlink:href="#m66494fc200" x="32.542188" y="252.980758" style="stroke: #000000; stroke-width: 0.8"/>
      </g>
     </g>
     <g id="text_11">
      <!-- 0 -->
      <g transform="translate(19.179688 256.779977)scale(0.1 -0.1)">
       <use xlink:href="#DejaVuSans-30"/>
      </g>
     </g>
    </g>
    <g id="ytick_4">
     <g id="line2d_14">
      <g>
       <use xlink:href="#m66494fc200" x="32.542188" y="188.430713" style="stroke: #000000; stroke-width: 0.8"/>
      </g>
     </g>
     <g id="text_12">
      <!-- 2 -->
      <g transform="translate(19.179688 192.229932)scale(0.1 -0.1)">
       <use xlink:href="#DejaVuSans-32"/>
      </g>
     </g>
    </g>
    <g id="ytick_5">
     <g id="line2d_15">
      <g>
       <use xlink:href="#m66494fc200" x="32.542188" y="123.880668" style="stroke: #000000; stroke-width: 0.8"/>
      </g>
     </g>
     <g id="text_13">
      <!-- 4 -->
      <g transform="translate(19.179688 127.679887)scale(0.1 -0.1)">
       <use xlink:href="#DejaVuSans-34"/>
      </g>
     </g>
    </g>
    <g id="ytick_6">
     <g id="line2d_16">
      <g>
       <use xlink:href="#m66494fc200" x="32.542188" y="59.330623" style="stroke: #000000; stroke-width: 0.8"/>
      </g>
     </g>
     <g id="text_14">
      <!-- 6 -->
      <g transform="translate(19.179688 63.129842)scale(0.1 -0.1)">
       <use xlink:href="#DejaVuSans-36"/>
      </g>
     </g>
    </g>
   </g>
   <g id="line2d_17">
    <path d="M 269.823574 252.980758 
L 273.051076 252.980758 
L 273.051076 252.980758 
L 269.823574 252.980758 
L 269.823574 252.980758 
L 273.051076 252.980758 
L 273.051076 252.980757 
L 269.823574 252.980757 
L 269.823574 252.980751 
L 273.051076 252.98075 
L 273.051076 252.980663 
L 269.823574 252.980653 
L 269.823574 252.980229 
L 273.051076 252.980162 
L 273.051076 252.97346 
L 269.823572 252.972646 
L 269.823565 252.939608 
L 273.05112 252.934364 
L 273.051859 252.410261 
L 269.815197 252.346124 
L 269.769414 249.74224 
L 273.333164 249.281564 
L 280.202461 188.610563 
L 189.875497 58.650155 
" clip-path="url(#pe98908d33c)" style="fill: none; stroke: #0000ff; stroke-width: 1.5; stroke-linecap: square"/>
   </g>
   <g id="patch_3">
    <path d="M 32.542188 404.521875 
L 32.542188 10.8 
" style="fill: none; stroke: #000000; stroke-width: 0.8; stroke-linejoin: miter; stroke-linecap: square"/>
   </g>
   <g id="patch_4">
    <path d="M 565.2 404.521875 
L 565.2 10.8 
" style="fill: none; stroke: #000000; stroke-width: 0.8; stroke-linejoin: miter; stroke-linecap: square"/>
   </g>
   <g id="patch_5">
    <path d="M 32.542188 404.521875 
L 565.2 404.521875 
" style="fill: none; stroke: #000000; stroke-width: 0.8; stroke-linejoin: miter; stroke-linecap: square"/>
   </g>
   <g id="patch_6">
    <path d="M 32.542188 10.8 
L 565.2 10.8 
" style="fill: none; stroke: #000000; stroke-width: 0.8; stroke-linejoin: miter; stroke-linecap: square"/>
   </g>
   <g id="text_15">
    <!-- Time: 40.000 -->
    <g transform="translate(43.195344 30.486094)scale(0.1 -0.1)">
     <defs>
      <path id="DejaVuSans-54" d="M -19 4666 
L 3928 4666 
L 3928 4134 
L 2272 4134 
L 2272 0 
L 1638 0 
L 1638 4134 
L -19 4134 
L -19 4666 
z
" transform="scale(0.015625)"/>
      <path id="DejaVuSans-69" d="M 603 3500 
L 1178 3500 
L 1178 0 
L 603 0 
L 603 3500 
z
M 603 4863 
L 1178 4863 
L 1178 4134 
L 603 4134 
L 603 4863 
z
" transform="scale(0.015625)"/>
      <path id="DejaVuSans-6d" d="M 3328 2828 
Q 3544 3216 3844 3400 
Q 4144 3584 4550 3584 
Q 5097 3584 5394 3201 
Q 5691 2819 5691 2113 
L 5691 0 
L 5113 0 
L 5113 2094 
Q 5113 2597 4934 2840 
Q 4756 3084 4391 3084 
Q 3944 3084 3684 2787 
Q 3425 2491 3425 1978 
L 3425 0 
L 2847 0 
L 2847 2094 
Q 2847 2600 2669 2842 
Q 2491 3084 2119 3084 
Q 1678 3084 1418 2786 
Q 1159 2488 1159 1978 
L 1159 0 
L 581 0 
L 581 3500 
L 1159 3500 
L 1159 2956 
Q 1356 3278 1631 3431 
Q 1906 3584 2284 3584 
Q 2666 3584 2933 3390 
Q 3200 3197 3328 2828 
z
" transform="scale(0.015625)"/>
      <path id="DejaVuSans-65" d="M 3597 1894 
L 3597 1613 
L 953 1613 
Q 991 1019 1311 708 
Q 1631 397 2203 397 
Q 2534 397 2845 478 
Q 3156 559 3463 722 
L 3463 178 
Q 3153 47 2828 -22 
Q 2503 -91 2169 -91 
Q 1331 -91 842 396 
Q 353 884 353 1716 
Q 353 2575 817 3079 
Q 1281 3584 2069 3584 
Q 2775 3584 3186 3129 
Q 3597 2675 3597 1894 
z
M 3022 2063 
Q 3016 2534 2758 2815 
Q 2500 3097 2075 3097 
Q 1594 3097 1305 2825 
Q 1016 2553 972 2059 
L 3022 2063 
z
" transform="scale(0.015625)"/>
      <path id="DejaVuSans-3a" d="M 750 794 
L 1409 794 
L 1409 0 
L 750 0 
L 750 794 
z
M 750 3309 
L 1409 3309 
L 1409 2516 
L 750 2516 
L 750 3309 
z
" transform="scale(0.015625)"/>
      <path id="DejaVuSans-20" transform="scale(0.015625)"/>
      <path id="DejaVuSans-2e" d="M 684 794 
L 1344 794 
L 1344 0 
L 684 0 
L 684 794 
z
" transform="scale(0.015625)"/>
     </defs>
     <use xlink:href="#DejaVuSans-54"/>
     <use xlink:href="#DejaVuSans-69" x="57.958984"/>
     <use xlink:href="#DejaVuSans-6d" x="85.742188"/>
     <use xlink:href="#DejaVuSans-65" x="183.154297"/>
     <use xlink:href="#DejaVuSans-3a" x="244.677734"/>
     <use xlink:href="#DejaVuSans-20" x="278.369141"/>
     <use xlink:href="#DejaVuSans-34" x="310.15625"/>
     <use xlink:href="#DejaVuSans-30" x="373.779297"/>
     <use xlink:href="#DejaVuSans-2e" x="437.402344"/>
     <use xlink:href="#DejaVuSans-30" x="469.189453"/>
     <use xlink:href="#DejaVuSans-30" x="532.8125"/>
     <use xlink:href="#DejaVuSans-30" x="596.435547"/>
    </g>
   </g>
  </g>
 </g>
 <defs>
  <clipPath id="pe98908d33c">
   <rect x="32.542188" y="10.8" width="532.657812" height="393.721875"/>
  </clipPath>
 </defs>
</svg>
